# AST/ASF file generated using VICON BodyLanguage
# -----------------------------------------------
:version 1.10
:name VICON
:units
  mass 1.0
  length 0.45
  angle deg
:documentation
   .ast/.asf automatically generated from VICON data using
   VICON BodyBuilder and BodyLanguage model FoxedUp or BRILLIANT.MOD
:root
   order TX TY TZ RX RY RZ
   axis XYZ
   position 0 0 0  
   orientation 0 0 0 
:bonedata
  begin
     id 1 
     name lhipjoint
     direction 0.690799 -0.707083 0.151096 
     length 2.54797 
     axis 0 0 0  XYZ
  end
  begin
     id 2 
     name lfemur
     direction 0.34202 -0.939693 0  
     length 7.21646  
     axis 0 0 20  XYZ
    dof rx ry rz
    limits (-160.0 20.0)
           (-70.0 70.0)
           (-60.0 70.0)
  end
  begin
     id 3 
     name ltibia
     direction 0.34202 -0.939693 0   
     length 8.16759   
     axis 0 0 20   XYZ
    dof rx
    limits (-10.0 170.0)
  end
  begin
     id 4 
     name lfoot
     direction 0.0487203 -0.133858 0.989802   
     length 1.93375   
     axis -90 7.62852e-016 20   XYZ
    dof rx rz
    limits (-45.0 90.0)
           (-70.0 20.0)
  end
  begin
     id 5 
     name ltoes
     direction 1.53453e-011 -4.21783e-011 1   
     length 0.979747   
     axis -90 7.62852e-016 20   XYZ
    dof rx
    limits (-90.0 20.0)
  end
  begin
     id 6 
     name rhipjoint
     direction -0.694693 -0.703425 0.150315   
     length 2.56122  
     axis 0 0 0  XYZ 
  end
  begin
     id 7 
     name rfemur
     direction -0.34202 -0.939693 0   
     length 7.36786   
     axis 0 0 -20   XYZ
    dof rx ry rz
    limits (-160.0 20.0)
           (-70.0 70.0)
           (-70.0 60.0)
  end
  begin
     id 8 
     name rtibia
     direction -0.34202 -0.939693 0   
     length 8.07288   
     axis 0 0 -20   XYZ
    dof rx
    limits (-10.0 170.0)
 end
 begin
     id 9 
     name rfoot
     direction -0.0428397 -0.117701 0.992125   
     length 1.88295  
     axis -90 -7.62852e-016 -20   XYZ
    dof rx rz
    limits (-45.0 90.0)
           (-20.0 70.0)
  end
  begin
     id 10 
     name rtoes
     direction -1.53456e-011 -4.2187e-011 1   
     length 0.955578   
     axis -90 -7.62852e-016 -20   XYZ
    dof rx
    limits (-90.0 20.0)
  end
  begin
     id 11 
     name lowerback
     direction 0.0288145 0.999398 -0.0193241   
     length 1.92149   
     axis 0 0 0   XYZ
    dof rx ry rz
    limits (-20.0 45.0)
           (-30.0 30.0)
           (-30.0 30.0)
  end
  begin
     id 12 
     name upperback
     direction 0.0233784 0.998099 0.0570278   
     length 1.90435   
     axis 0 0 0   XYZ
    dof rx ry rz
    limits (-20.0 45.0)
           (-30.0 30.0)
           (-30.0 30.0)
  end
  begin
     id 13 
     name thorax
     direction 0.0096694 0.997833 0.0650817   
     length 1.9111   
     axis 0 0 0   XYZ
    dof rx ry rz
    limits (-20.0 45.0)
           (-30.0 30.0)
           (-30.0 30.0)
  end
  begin
     id 14 
     name lowerneck
     direction 0.00516803 0.999916 0.0118722   
     length 1.74664   
     axis 0 0 0   XYZ
    dof rx ry rz
    limits (-20.0 45.0)
           (-30.0 30.0)
           (-30.0 30.0)
  end
  begin
     id 15 
     name upperneck
     direction -0.0510851 0.996117 -0.071696   
     length 1.68498   
     axis 0 0 0   XYZ
    dof rx ry rz
    limits (-20.0 45.0)
           (-30.0 30.0)
           (-30.0 30.0)
  end
  begin
     id 16
     name head
     direction -0.019188 0.999436 -0.0275702  
     length 1.83483  
     axis 0 0 0   XYZ
    dof rx ry rz
    limits (-20.0 45.0)
           (-30.0 30.0)
           (-30.0 30.0)
  end
  begin
     id 17 
     name lclavicle
     direction 0.967006 0.248456 -0.0562957  
     length 3.39395  
     axis 0 0 0   XYZ
    dof ry rz
    limits (-20.0 10.0)
           (0.0 20.0)
  end
  begin
     id 18 
     name lhumerus
     direction 1 -4.48962e-011 -5.62711e-019   
     length 5.24318   
     axis 180 -30 -90   XYZ
    dof rx ry rz
    limits (-60.0 90.0)
           (-90.0 90.0)
           (-90.0 90.0)
  end
  begin
     id 19
     name lradius
     direction 1 -4.48966e-011 7.90625e-027   
     length 2.98999   
     axis 180 -30 -90   XYZ
    dof rx
    limits (-10.0 170.0)
  end
  begin
     id 20
     name lwrist
     direction 1 -4.48959e-011 1.61068e-026   
     length 1.49499   
     axis -9.31229e-015 90 90   XYZ
    dof ry
    limits (-180.0 0.0)
 end
  begin
     id 21 
     name lhand
     direction 1 -4.49017e-011 3.22136e-026   
     length 0.726745   
     axis -2.0555e-014 90 90   XYZ
    dof rx rz
    limits (-90.0 90.0)
           (-45.0 45.0)
  end
  begin
     id 22 
     name lfingers
     direction 1 -4.4898e-011 6.44272e-026   
     length 0.58592   
     axis -4.11101e-014 90 90   XYZ
    dof rx
    limits (0.0 90.0)
  end
  begin
     id 23
     name lthumb
     direction 0.707107 -6.34922e-011 0.707107   
     length 0.841268   
     axis -90 45 2.85299e-015   XYZ
    dof rx rz
    limits (-45.0 45.0)
           (-45.0 45.0)
  end
  begin
     id 24 
     name rclavicle
     direction -0.972232 0.230238 0.0419005   
     length 3.40416  
     axis 0 0 0   XYZ 
    dof ry rz
    limits (-10.0 20.0)
           (-20.0 0.0)
  end
  begin
     id 25 
     name rhumerus
     direction -1 -4.48976e-011 2.48487e-027  
     length 5.37045   
     axis 180 30 90   XYZ
    dof rx ry rz
    limits (-90.0 60.0)
           (-90.0 90.0)
           (-90.0 90.0)
  end
  begin
     id 26 
     name rradius
     direction -1 -4.48942e-011 7.87951e-027   
     length 2.92792   
     axis 180 30 90   XYZ
    dof rx
    limits (-10.0 170.0)
  end
  begin
     id 27 
     name rwrist
     direction -1 -4.48969e-011 1.61068e-026   
     length 1.46396   
     axis -9.31229e-015 -90 -90   XYZ
    dof ry
    limits (-180.0 0.0)
  end
  begin
     id 28
     name rhand
     direction -1 -4.49043e-011 3.22136e-026   
     length 0.784497   
     axis -2.0555e-014 -90 -90   XYZ
    dof rx rz
    limits (-90.0 90.0)
           (-45.0 45.0)
  end
  begin
     id 29
     name rfingers
     direction -1 -4.48823e-011 6.44272e-026   
     length 0.632482   
     axis -4.11101e-014 -90 -90   XYZ
    dof rx
    limits (0.0 90.0)
  end
  begin
     id 30
     name rthumb
     direction -0.707107 -6.34923e-011 0.707107   
     length 0.908121   
     axis -90 -45 -2.85299e-015   XYZ
    dof rx rz
    limits (-45.0 45.0)
           (-45.0 45.0)
  end
:hierarchy
  begin
    root lhipjoint rhipjoint lowerback
    lhipjoint lfemur
    lfemur ltibia
    ltibia lfoot
    lfoot ltoes
    rhipjoint rfemur
    rfemur rtibia
    rtibia rfoot
    rfoot rtoes
    lowerback upperback
    upperback thorax
    thorax lowerneck lclavicle rclavicle
    lowerneck upperneck
    upperneck head
    lclavicle lhumerus
    lhumerus lradius
    lradius lwrist
    lwrist lhand lthumb
    lhand lfingers
    rclavicle rhumerus
    rhumerus rradius
    rradius rwrist
    rwrist rhand rthumb
    rhand rfingers
  end

#!OML:ASF E:\Style6\Style6.ASF
:FULLY-SPECIFIED
:DEGREES
264
root 0.37287 15.7059 0.647086 10.2832 -0.906718 -5.35248
lowerback 5.46337 -1.08202 2.08042
upperback -4.49999 -0.987008 3.9933
thorax -7.76736 -0.474904 3.16181
lowerneck -11.3289 0.780004 2.11306
upperneck 20.0813 1.74683 -5.17198
head 8.14607 0.475828 -1.89647
rclavicle -5.31749e-015 -1.98785e-014
rhumerus -15.5582 17.8306 2.08673
rradius 44.5437
rwrist -23.1061
rhand 12.1714 6.74319
rfingers 7.12502
rthumb 37.1828 -19.2738
lclavicle -5.31749e-015 -1.98785e-014
lhumerus -31.0933 -66.4974 26.7095
lradius 45.7034
lwrist 43.0351
lhand 15.731 19.7937
lfingers 7.12502
lthumb 40.5393 44.8548
rfemur -43.0747 -12.6609 25.5415
rtibia 66.2499
rfoot -24.5433 12.7021
rtoes -0.966596
lfemur -43.1441 12.2929 -12.7534
ltibia 70.3919
lfoot -30.847 -1.06239
ltoes -27.3239
265
root 0.376252 15.7045 0.644157 10.3078 -0.95711 -5.32825
lowerback 5.54313 -1.08537 2.07352
upperback -4.49097 -0.987442 4.01296
thorax -7.8039 -0.473917 3.18889
lowerneck -11.3571 0.779533 2.09858
upperneck 20.1233 1.75549 -5.19586
head 8.16576 0.475556 -1.90164
rclavicle -6.58474e-015 2.34566e-014
rhumerus -15.9414 18.3972 1.52309
rradius 44.5137
rwrist -23.4756
rhand 12.5915 6.71935
rfingers 7.12502
rthumb 37.5799 -19.193
lclavicle -6.58474e-015 2.34566e-014
lhumerus -30.68 -65.9356 26.2163
lradius 44.8859
lwrist 42.8177
lhand 16.018 20.1905
lfingers 7.12502
lthumb 40.809 45.1673
rfemur -43.1207 -12.6414 25.5079
rtibia 66.2665
rfoot -24.1125 13.3235
rtoes 2.51621
lfemur -43.1636 12.3138 -12.8022
ltibia 70.3845
lfoot -30.8598 -1.16117
ltoes -26.9128
266
root 0.380619 15.7039 0.641665 10.3782 -0.944775 -5.33648
lowerback 5.57063 -1.11295 2.10971
upperback -4.50265 -1.01635 4.05714
thorax -7.83173 -0.488566 3.22037
lowerneck -11.4215 0.805219 2.107
upperneck 20.203 1.80028 -5.23414
head 8.2065 0.491767 -1.91222
rclavicle -1.03617e-014 5.96354e-015
rhumerus -16.3441 19.1318 0.925077
rradius 44.5629
rwrist -23.9113
rhand 12.6836 6.42497
rfingers 7.12502
rthumb 37.6669 -19.4641
lclavicle -1.03617e-014 5.96354e-015
lhumerus -30.4395 -65.453 26.0025
lradius 44.0651
lwrist 42.5853
lhand 16.3174 20.5944
lfingers 7.12502
lthumb 41.0903 45.482
rfemur -43.2294 -12.6557 25.5257
rtibia 66.2942
rfoot -24.0761 13.359
rtoes 2.85008
lfemur -43.2595 12.2976 -12.8245
ltibia 70.3903
lfoot -30.8505 -1.14784
ltoes -27.0572
267
root 0.387009 15.7038 0.639203 10.4087 -0.940427 -5.29126
lowerback 5.61143 -1.12643 2.15167
upperback -4.49757 -1.02901 4.05482
thorax -7.85051 -0.497063 3.19701
lowerneck -11.4309 0.828052 2.13536
upperneck 20.2556 1.82604 -5.22402
head 8.22701 0.506359 -1.91156
rclavicle 2.16427e-014 -4.37326e-014
rhumerus -16.8636 19.7594 0.253935
rradius 44.5812
rwrist -24.0928
rhand 12.7524 6.64563
rfingers 7.12502
rthumb 37.732 -19.226
lclavicle 2.16427e-014 -4.37326e-014
lhumerus -30.3112 -64.9831 25.8739
lradius 43.3831
lwrist 42.3773
lhand 16.6188 21.0187
lfingers 7.12502
lthumb 41.3732 45.8153
rfemur -43.3087 -12.7036 25.4687
rtibia 66.3372
rfoot -24.0112 13.4724
rtoes 3.28004
lfemur -43.3227 12.2639 -12.9155
ltibia 70.3961
lfoot -30.8174 -0.866561
ltoes -27.7928
268
root 0.394182 15.7015 0.637118 10.4223 -0.976351 -5.16215
lowerback 5.65306 -1.13162 2.1279
upperback -4.4719 -1.04028 4.01258
thorax -7.84668 -0.502651 3.16727
lowerneck -11.4265 0.836861 2.12702
upperneck 20.3021 1.8323 -5.18025
head 8.24158 0.51249 -1.89537
rclavicle -2.58172e-014 3.57812e-014
rhumerus -17.4259 20.2931 -0.508695
rradius 44.5826
rwrist -24.2679
rhand 12.7401 6.85741
rfingers 7.12502
rthumb 37.7203 -19.0174
lclavicle -2.58172e-014 3.57812e-014
lhumerus -30.3018 -64.4916 25.8141
lradius 42.8631
lwrist 42.1232
lhand 16.9815 21.3004
lfingers 7.12502
lthumb 41.7134 45.9857
rfemur -43.3854 -12.7596 25.305
rtibia 66.4037
rfoot -24.3541 13.0736
rtoes 0.50196
lfemur -43.3484 12.2438 -13.0982
ltibia 70.404
lfoot -30.7985 -0.821232
ltoes -27.9432
269
root 0.399254 15.6974 0.635357 10.4571 -1.0349 -5.05067
lowerback 5.70305 -1.12611 2.08978
upperback -4.46443 -1.03689 3.97691
thorax -7.86757 -0.499891 3.15175
lowerneck -11.4017 0.815367 2.06006
upperneck 20.3255 1.79955 -5.09966
head 8.24234 0.499844 -1.86074
rclavicle 1.04113e-014 -1.98785e-014
rhumerus -18.0809 21.063 -1.37369
rradius 44.6792
rwrist -24.9129
rhand 12.6938 6.57022
rfingers 7.12502
rthumb 37.6767 -19.3163
lclavicle 1.04113e-014 -1.98785e-014
lhumerus -30.3708 -64.0877 25.9032
lradius 42.3823
lwrist 41.9066
lhand 17.2752 21.7162
lfingers 7.12502
lthumb 41.9888 46.31
rfemur -43.486 -12.7442 25.1709
rtibia 66.4746
rfoot -24.724 12.6253
rtoes -2.28042
lfemur -43.3995 12.2793 -13.2564
ltibia 70.4296
lfoot -30.8124 -1.04192
ltoes -27.435
270
root 0.403848 15.6916 0.632235 10.5109 -1.10602 -5.04174
lowerback 5.80341 -1.10894 2.13196
upperback -4.47795 -1.00481 3.97235
thorax -7.94302 -0.486161 3.12301
lowerneck -11.3619 0.780686 2.00926
upperneck 20.2549 1.74653 -5.04234
head 8.2084 0.477817 -1.83767
rclavicle -8.77137e-015 -1.63003e-014
rhumerus -18.8117 21.7979 -2.32324
rradius 44.7566
rwrist -25.4335
rhand 12.9047 6.57871
rfingers 7.12502
rthumb 37.8758 -19.2542
lclavicle -8.77137e-015 -1.63003e-014
lhumerus -30.6895 -63.7654 26.2379
lradius 42.1063
lwrist 41.7136
lhand 17.3912 22.0384
lfingers 7.12502
lthumb 42.0975 46.5957
rfemur -43.6021 -12.6831 25.1471
rtibia 66.5464
rfoot -24.3012 13.2097
rtoes 0.941508
lfemur -43.4993 12.3433 -13.3051
ltibia 70.4991
lfoot -30.8558 -1.26424
ltoes -26.7855
271
root 0.407437 15.6845 0.627012 10.6023 -1.15569 -5.12143
lowerback 5.8923 -1.09681 2.24945
upperback -4.4903 -0.969484 4.01427
thorax -8.01165 -0.473657 3.10047
lowerneck -11.3955 0.749378 1.9559
upperneck 20.1765 1.71222 -5.05116
head 8.18669 0.45706 -1.83433
rclavicle 1.87852e-014 7.95139e-015
rhumerus -19.4983 22.5554 -3.29513
rradius 44.9286
rwrist -25.9158
rhand 13.0126 6.78071
rfingers 7.12502
rthumb 37.9777 -19.0246
lclavicle 1.87852e-014 7.95139e-015
lhumerus -31.237 -63.4367 26.8403
lradius 41.9466
lwrist 41.4964
lhand 17.4121 21.9276
lfingers 7.12502
lthumb 42.1171 46.4783
rfemur -43.7785 -12.6171 25.2425
rtibia 66.6257
rfoot -23.5155 14.1863
rtoes 6.86874
lfemur -43.6726 12.4451 -13.2623
ltibia 70.5915
lfoot -30.8819 -1.28062
ltoes -26.715
272
root 0.410499 15.6773 0.62218 10.694 -1.20334 -5.15213
lowerback 5.91625 -1.0845 2.3276
upperback -4.47593 -0.94385 4.02919
thorax -8.01246 -0.464982 3.06941
lowerneck -11.4876 0.73549 1.93614
upperneck 20.1785 1.68955 -5.01956
head 8.20293 0.446675 -1.82287
rclavicle 1.77415e-014 -9.54166e-015
rhumerus -20.348 23.4021 -4.38007
rradius 45.3063
rwrist -26.5865
rhand 12.8176 6.68979
rfingers 7.12502
rthumb 37.7936 -19.1653
lclavicle 1.77415e-014 -9.54166e-015
lhumerus -31.812 -63.1731 27.5535
lradius 41.81
lwrist 41.396
lhand 17.4373 21.747
lfingers 7.12502
lthumb 42.1407 46.2898
rfemur -43.9599 -12.5698 25.2865
rtibia 66.7097
rfoot -22.9862 14.8568
rtoes 11.0518
lfemur -43.8498 12.5246 -13.2706
ltibia 70.6778
lfoot -30.844 -1.32437
ltoes -26.5274
273
root 0.413799 15.6727 0.621392 10.7716 -1.24567 -5.05043
lowerback 5.89372 -1.08218 2.28994
upperback -4.4493 -0.948769 4.00029
thorax -7.96983 -0.466448 3.05873
lowerneck -11.5589 0.739969 1.95895
upperneck 20.1738 1.68271 -4.9841
head 8.21397 0.447765 -1.81555
rclavicle 1.8487e-014 0
rhumerus -21.3019 24.2553 -5.54729
rradius 45.7268
rwrist -27.2234
rhand 12.7545 6.00578
rfingers 7.12502
rthumb 37.734 -19.8653
lclavicle 1.8487e-014 0
lhumerus -32.3561 -62.8572 28.3328
lradius 41.6675
lwrist 41.4005
lhand 17.6015 21.7472
lfingers 7.12502
lthumb 42.2945 46.2379
rfemur -44.123 -12.5807 25.1752
rtibia 66.8176
rfoot -22.8716 15.0386
rtoes 11.726
lfemur -43.9514 12.5376 -13.4234
ltibia 70.7254
lfoot -30.8564 -1.13994
ltoes -26.9972
274
root 0.417225 15.6699 0.621845 10.7937 -1.26802 -4.89907
lowerback 5.91895 -1.08989 2.19708
upperback -4.39956 -0.971396 3.96635
thorax -7.92855 -0.473691 3.07667
lowerneck -11.5603 0.725911 1.95424
upperneck 20.0612 1.65783 -4.97628
head 8.17546 0.437625 -1.81347
rclavicle 2.17172e-014 -4.01545e-014
rhumerus -22.2298 25.1232 -6.77971
rradius 46.1781
rwrist -27.774
rhand 12.7891 5.2663
rfingers 7.12502
rthumb 37.7667 -20.596
lclavicle 2.17172e-014 -4.01545e-014
lhumerus -33.0191 -62.468 29.2601
lradius 41.6635
lwrist 41.4851
lhand 17.8438 21.8242
lfingers 7.12502
lthumb 42.5214 46.2371
rfemur -44.2123 -12.6277 24.9961
rtibia 66.9261
rfoot -22.6799 15.2125
rtoes 12.0745
lfemur -43.9851 12.5086 -13.6123
ltibia 70.7597
lfoot -30.8693 -1.22476
ltoes -26.6998
275
root 0.420541 15.6632 0.619695 10.8034 -1.25901 -4.81494
lowerback 5.9596 -1.09558 2.19508
upperback -4.34743 -0.981675 3.93574
thorax -7.89593 -0.479745 3.04595
lowerneck -11.5532 0.700701 1.94217
upperneck 20.0171 1.62383 -4.97779
head 8.15803 0.421042 -1.81498
rclavicle -2.3059e-014 8.74653e-015
rhumerus -23.1155 25.9588 -8.13033
rradius 46.4801
rwrist -28.2866
rhand 12.7282 5.12845
rfingers 7.12502
rthumb 37.7091 -20.7493
lclavicle -2.3059e-014 8.74653e-015
lhumerus -33.7727 -62.1657 30.3224
lradius 41.7679
lwrist 41.7499
lhand 17.8829 21.6077
lfingers 7.12502
lthumb 42.558 46.008
rfemur -44.298 -12.6703 24.8981
rtibia 67.0379
rfoot -22.6666 15.2237
rtoes 11.6304
lfemur -44.0462 12.4843 -13.7256
ltibia 70.8207
lfoot -30.8936 -1.18665
ltoes -26.8263
276
root 0.423081 15.6552 0.616272 10.8114 -1.23663 -4.82409
lowerback 6.08672 -1.09976 2.29055
upperback -4.34193 -0.970925 3.95146
thorax -7.96649 -0.478828 3.01154
lowerneck -11.59 0.690702 1.88095
upperneck 20.0682 1.6285 -4.99755
head 8.18188 0.415631 -1.81141
rclavicle 7.25564e-015 -4.17448e-014
rhumerus -24.0285 26.7985 -9.51113
rradius 46.7902
rwrist -28.8843
rhand 12.8733 4.79061
rfingers 7.12502
rthumb 37.8462 -21.0503
lclavicle 7.25564e-015 -4.17448e-014
lhumerus -34.7666 -61.9124 31.6915
lradius 41.934
lwrist 42.0847
lhand 17.8405 20.8998
lfingers 7.12502
lthumb 42.5183 45.3138
rfemur -44.383 -12.6872 24.9094
rtibia 67.1457
rfoot -22.663 15.2596
rtoes 11.8832
lfemur -44.15 12.4849 -13.7292
ltibia 70.9236
lfoot -30.902 -1.05769
ltoes -27.3359
277
root 0.426735 15.6453 0.612408 10.9404 -1.28 -4.87694
lowerback 6.1403 -1.08184 2.42339
upperback -4.38964 -0.926396 3.98812
thorax -8.0532 -0.462825 2.97362
lowerneck -11.5786 0.682285 1.83359
upperneck 20.0656 1.64293 -5.07459
head 8.17987 0.411478 -1.82767
rclavicle 3.97569e-015 1.98785e-014
rhumerus -25.023 27.5419 -10.9498
rradius 47.1975
rwrist -29.3837
rhand 13.2154 4.26774
rfingers 7.12502
rthumb 38.1693 -21.4852
lclavicle 3.97569e-015 1.98785e-014
lhumerus -35.947 -61.6528 33.2854
lradius 42.2028
lwrist 42.5663
lhand 17.6657 20.565
lfingers 7.12502
lthumb 42.3546 45.0351
rfemur -44.6205 -12.6313 24.9853
rtibia 67.2687
rfoot -22.7322 15.1737
rtoes 11.4985
lfemur -44.3796 12.5405 -13.7205
ltibia 71.0479
lfoot -30.9326 -0.89746
ltoes -27.892
